<svg width="310.000000" height="50.000000" viewBox="0 0 310 50" fill="none" xmlns="http://www.w3.org/2000/svg" xmlns:xlink="http://www.w3.org/1999/xlink">
	<desc>
			Created with Pixso.
	</desc>
	<defs/>
	<path d="M125.94 39.9L119.69 39.9L119.69 19.46L111.47 39.9L108.76 39.9L100.54 19.48L100.54 39.9L94.33 39.9L94.33 10.72L103.03 10.72L110.12 28.34L117.2 10.72L125.94 10.72L125.94 39.9Z" fill="#000000" fill-opacity="1.000000" fill-rule="nonzero"/>
	<path d="M149.82 39.9L144.25 39.9L144.25 37.71C142.74 39.52 140.51 40.42 137.57 40.42C135.7 40.43 133.89 39.77 132.47 38.57C130.97 37.32 130.22 35.61 130.22 33.43C130.22 31.15 130.95 29.44 132.43 28.32C133.89 27.18 135.71 26.57 137.56 26.6C140.56 26.6 142.79 27.46 144.25 29.17L144.25 26.33C144.26 25.83 144.15 25.33 143.92 24.89C143.7 24.44 143.37 24.05 142.97 23.76C141.98 23.08 140.8 22.74 139.6 22.8C137.3 22.8 135.09 23.69 133.43 25.29L131.34 21.57C133.84 19.36 136.92 18.26 140.56 18.25C143.27 18.25 145.48 18.88 147.21 20.13C148.93 21.38 149.79 23.43 149.77 26.26L149.82 39.9ZM139.8 36.66C141.87 36.66 143.36 36.05 144.26 34.82L144.26 32.2C143.36 30.97 141.88 30.36 139.8 30.36C138.79 30.33 137.79 30.63 136.96 31.22C136.6 31.48 136.3 31.84 136.1 32.25C135.9 32.65 135.81 33.1 135.82 33.56C135.81 34 135.91 34.44 136.1 34.84C136.3 35.24 136.6 35.58 136.96 35.83C137.8 36.4 138.79 36.69 139.8 36.65L139.8 36.66Z" fill="#000000" fill-opacity="1.000000" fill-rule="nonzero"/>
	<path d="M180.2 18.77L185.8 18.77L185.8 39.9L155.33 39.9L155.33 18.77L160.89 18.77L160.89 35.03L167.79 35.03L167.79 18.77L173.36 18.77L173.36 35.03L180.2 35.03L180.2 18.77Z" fill="#000000" fill-opacity="1.000000" fill-rule="nonzero"/>
	<path d="M199 40.41C194.75 40.41 191.47 39.29 189.16 37.04L191.7 33.59C193.59 35.19 196.03 36 199 35.99C200.11 36.05 201.22 35.84 202.23 35.38C202.56 35.24 202.85 35.01 203.05 34.72C203.25 34.42 203.36 34.08 203.37 33.72C203.37 32.15 201.8 31.36 198.67 31.36L194.34 31.36L194.34 27.06L198.67 27.06C201.56 27.06 203 26.3 203 24.79C203 24.15 202.6 23.63 201.82 23.23C200.85 22.81 199.81 22.6 198.76 22.64C196.01 22.64 193.83 23.45 192.2 25.05L189.49 21.77C191.82 19.44 194.81 18.27 198.45 18.27C201.71 18.24 204.25 18.74 206.06 19.78C207.86 20.82 208.77 22.25 208.77 24.06C208.77 24.69 208.62 25.32 208.34 25.89C208.06 26.46 207.65 26.95 207.15 27.34C206.04 28.26 204.69 28.85 203.26 29.05C204.74 29.13 206.16 29.65 207.35 30.54C207.93 30.93 208.4 31.45 208.73 32.07C209.05 32.69 209.22 33.38 209.21 34.08C209.21 35.97 208.29 37.5 206.45 38.67C204.61 39.83 202.13 40.42 199 40.41Z" fill="#000000" fill-opacity="1.000000" fill-rule="nonzero"/>
	<path d="M231.58 39.9L226.01 39.9L226.01 37.71C224.5 39.52 222.27 40.42 219.33 40.42C217.46 40.43 215.65 39.77 214.23 38.57C212.73 37.32 211.98 35.61 211.98 33.43C211.98 31.15 212.72 29.44 214.19 28.32C215.66 27.17 217.47 26.57 219.33 26.6C222.33 26.6 224.56 27.46 226.01 29.17L226.01 26.33C226.03 25.83 225.92 25.33 225.69 24.89C225.47 24.44 225.14 24.05 224.73 23.76C223.74 23.08 222.56 22.74 221.36 22.8C219.06 22.8 216.85 23.69 215.2 25.29L213.1 21.57C215.61 19.36 218.68 18.26 222.33 18.25C225.04 18.25 227.25 18.88 228.97 20.13C230.69 21.38 231.54 23.43 231.54 26.26L231.58 39.9ZM221.56 36.66C223.64 36.66 225.12 36.05 226.02 34.82L226.02 32.2C225.12 30.97 223.64 30.36 221.56 30.36C220.55 30.33 219.55 30.63 218.72 31.22C218.36 31.48 218.06 31.84 217.86 32.25C217.66 32.65 217.57 33.1 217.58 33.56C217.57 34 217.67 34.44 217.86 34.84C218.06 35.24 218.36 35.58 218.72 35.83C219.56 36.4 220.55 36.69 221.56 36.65L221.56 36.66Z" fill="#000000" fill-opacity="1.000000" fill-rule="nonzero"/>
	<path d="M250.86 39.9L237.09 39.9L237.09 18.77L250.47 18.77C252.51 18.77 254.09 19.29 255.23 20.34C255.78 20.82 256.21 21.41 256.51 22.08C256.8 22.74 256.95 23.46 256.94 24.19C256.98 25.28 256.64 26.35 255.99 27.22C255.34 28.09 254.41 28.72 253.35 29C254.5 29.25 255.53 29.9 256.24 30.84C256.99 31.78 257.4 32.95 257.38 34.16C257.4 34.92 257.26 35.69 256.97 36.4C256.67 37.11 256.23 37.74 255.67 38.27C254.49 39.35 252.9 39.9 250.86 39.9ZM249.33 26.87C249.85 26.89 250.36 26.71 250.75 26.36C250.92 26.21 251.07 26.02 251.16 25.8C251.25 25.59 251.3 25.35 251.3 25.12C251.3 24.88 251.26 24.64 251.17 24.42C251.08 24.2 250.94 24 250.77 23.83C250.58 23.66 250.35 23.52 250.1 23.44C249.85 23.35 249.59 23.31 249.33 23.33L242.64 23.33L242.64 26.87L249.33 26.87ZM249.5 35.35C250.08 35.38 250.65 35.19 251.1 34.82C251.3 34.64 251.45 34.42 251.56 34.17C251.66 33.92 251.7 33.65 251.69 33.38C251.7 33.12 251.65 32.86 251.54 32.62C251.44 32.38 251.29 32.16 251.1 31.98C250.88 31.79 250.63 31.64 250.36 31.54C250.08 31.44 249.79 31.4 249.5 31.41L242.66 31.41L242.66 35.35L249.5 35.35Z" fill="#000000" fill-opacity="1.000000" fill-rule="nonzero"/>
	<path d="M280.64 37.2C278.6 39.34 275.89 40.41 272.5 40.41C269.12 40.41 266.41 39.34 264.37 37.2C262.42 35.04 261.34 32.23 261.34 29.31C261.34 26.4 262.42 23.59 264.37 21.43C266.4 19.3 269.11 18.24 272.5 18.24C275.9 18.24 278.61 19.3 280.64 21.43C282.6 23.59 283.69 26.4 283.69 29.31C283.69 32.23 282.6 35.04 280.64 37.2ZM268.57 33.7C269.04 34.28 269.64 34.74 270.32 35.05C271.01 35.36 271.75 35.5 272.5 35.47C273.25 35.5 274 35.36 274.69 35.05C275.37 34.74 275.98 34.28 276.46 33.7C277.41 32.44 277.92 30.9 277.92 29.33C277.92 27.75 277.41 26.21 276.46 24.95C275.98 24.37 275.37 23.91 274.69 23.6C274 23.29 273.25 23.15 272.5 23.18C271.75 23.15 271.01 23.29 270.32 23.6C269.64 23.91 269.04 24.37 268.57 24.95C267.63 26.22 267.13 27.75 267.13 29.33C267.13 30.9 267.63 32.43 268.57 33.7Z" fill="#000000" fill-opacity="1.000000" fill-rule="nonzero"/>
	<path d="M285.84 45.26L285.84 35.25C286.39 35.17 286.91 34.95 287.35 34.61C287.83 34.11 288.19 33.49 288.39 32.82C288.81 31.58 289.08 30.3 289.2 29L290.56 18.77L307.68 18.77L307.68 35.03L310 35.03L310 45.26L304.43 45.26L304.43 39.9L291.44 39.9L291.44 45.28L285.84 45.26ZM295.41 23.64L294.76 29.36C294.47 31.9 293.66 33.8 292.31 35.05L302.1 35.05L302.1 23.64L295.41 23.64Z" fill="#000000" fill-opacity="1.000000" fill-rule="nonzero"/>
	<path d="M72.95 49.93C72.93 36.65 72.93 23.37 72.95 10.09C72.95 9.66 72.89 9.23 72.85 8.69C72.26 8.96 71.85 9.12 71.46 9.33C60.74 14.9 50.01 20.46 39.31 26.09C37.98 26.79 36.96 26.85 35.6 26.14C29.56 23.01 23.45 20.01 17.37 16.96C17 16.77 16.6 16.61 16.01 16.34L16.01 49.86L24.19 49.93L24.7 49.93L24.7 30.67C28.6 32.62 32.5 34.59 36.39 36.56C36.71 36.74 37.09 36.84 37.46 36.83C37.84 36.82 38.21 36.71 38.53 36.5C46.6 32.24 54.7 28 62.81 23.78C63.29 23.53 63.8 23.32 64.49 23L64.49 49.93L72.95 49.93Z" fill="#FFA500" fill-opacity="1.000000" fill-rule="nonzero"/>
	<path d="M49.16 38.72C48.99 38.86 48.86 39.02 48.77 39.21C48.67 39.4 48.62 39.61 48.62 39.82C48.58 42.64 48.56 45.46 48.62 48.29L48.62 49.93L56.93 49.93L56.93 34.95C56.78 34.94 56.63 34.95 56.48 34.98C54.03 36.23 51.59 37.44 49.16 38.72Z" fill="#FFA500" fill-opacity="1.000000" fill-rule="nonzero"/>
	<path d="M17.09 8.49C23.66 11.85 30.25 15.2 36.84 18.54C37.14 18.66 37.47 18.72 37.8 18.72C38.13 18.71 38.45 18.64 38.75 18.5C47.17 14.26 55.55 9.94 63.94 5.66C64.79 5.23 65.65 4.76 66.67 4.21C66.15 3.89 65.82 3.67 65.48 3.48C63.62 2.51 61.75 1.58 59.91 0.56C59.59 0.36 59.21 0.25 58.83 0.26C58.44 0.26 58.07 0.38 57.75 0.59C51.53 3.79 45.27 6.95 39.06 10.18C38.67 10.42 38.22 10.55 37.76 10.55C37.3 10.55 36.84 10.42 36.45 10.18C32.45 8.1 28.53 5.97 24.51 3.92L22.49 3.05L15.52 -0.07L8.49 4.03C8.66 4.15 8.8 4.23 8.92 4.31C8.78 4.23 8.64 4.15 8.49 4.03L0 8.98L0 31.87C0 37.9 0 43.92 0.02 49.93L8.53 49.93C8.53 37.86 8.53 25.8 8.53 13.73L17.09 8.49Z" fill="#FFA500" fill-opacity="1.000000" fill-rule="nonzero"/>
</svg>
