<svg width="1844.000000" height="860.000000" viewBox="0 0 1844 860" fill="none" xmlns="http://www.w3.org/2000/svg" xmlns:xlink="http://www.w3.org/1999/xlink">
	<desc>
			Created with Pixso.
	</desc>
	<defs/>
	<path id="Vector 45" d="M1 422.38L1 101C1 45.77 45.77 1 101 1L941 1L1742 1C1797.23 1 1842 45.77 1842 101L1842 758C1842 813.22 1797.23 858 1742 858L1494.5 858L913.5 858L101 858C45.77 858 1 813.22 1 758L1 422.38Z" fill="#FEA700" fill-opacity="1.000000" fill-rule="nonzero"/>
	<path id="Vector 45" d="M1 422.38L1 758C1 813.22 45.77 858 101 858L913.5 858L1494.5 858L1742 858C1797.23 858 1842 813.22 1842 758L1842 101C1842 45.77 1797.23 1 1742 1L941 1L101 1C45.77 1 1 45.77 1 101L1 422.38Z" stroke="#FEA700" stroke-opacity="1.000000" stroke-width="3.000000"/>
</svg>
