<svg width="930.000000" height="860.000000" viewBox="0 0 930 860" fill="none" xmlns="http://www.w3.org/2000/svg" xmlns:xlink="http://www.w3.org/1999/xlink">
	<desc>
			Created with Pixso.
	</desc>
	<defs/>
	<path id="Vector 46" d="M695 422.38L695 101C695 45.77 650.22 1 595 1L828 1C883.22 1 928 45.77 928 101L928 429.5L928 758C928 813.22 883.22 858 828 858L595 858C650.22 858 695 813.22 695 758L695 422.38Z" fill="#FEA700" fill-opacity="1.000000" fill-rule="nonzero"/>
	<path id="Vector 46" d="M695 422.38L695 758C695 813.22 650.22 858 595 858L580.5 858L-0.5 858L580.5 858L595 858L828 858C883.22 858 928 813.22 928 758L928 429.5L928 101C928 45.77 883.22 1 828 1L595 1L27 1L595 1C650.22 1 695 45.77 695 101L695 422.38Z" stroke="#FEA700" stroke-opacity="1.000000" stroke-width="3.000000"/>
</svg>
