<svg width="1502.000000" height="995.000000" viewBox="0 0 1502 995" fill="none" xmlns="http://www.w3.org/2000/svg" xmlns:xlink="http://www.w3.org/1999/xlink">
	<desc>
			Created with Pixso.
	</desc>
	<defs/>
	<path id="Vector 23" d="M26.39 525.43L291.71 232.01C302.41 220.17 315.79 211.07 330.73 205.46L857.48 7.7C880.96 -1.11 906.9 -0.78 930.15 8.63L1385.43 192.92C1417.77 206.01 1440.94 235 1446.59 269.43L1498.43 585.62C1501.42 603.85 1499.3 622.55 1492.31 639.64L1400.12 865.14C1391.93 885.17 1377.46 902 1358.89 913.11L1248.21 979.31C1232.68 988.59 1214.94 993.5 1196.87 993.5L202.67 993.5C159.82 993.5 121.74 966.2 107.97 925.62L5.86 624.62C-5.78 590.28 2.07 552.32 26.39 525.43Z" fill="#FEA700" fill-opacity="1.000000" fill-rule="nonzero"/>
	<path id="Vector 23" d="M26.39 525.43C2.07 552.32 -5.78 590.28 5.86 624.62L107.97 925.62C121.74 966.2 159.82 993.5 202.67 993.5L1196.87 993.5C1214.94 993.5 1232.68 988.59 1248.21 979.31L1358.89 913.11C1377.46 902 1391.93 885.17 1400.12 865.14L1492.31 639.64C1499.3 622.55 1501.42 603.85 1498.43 585.62L1446.59 269.43C1440.94 235 1417.77 206.01 1385.43 192.92L930.15 8.63C906.9 -0.78 880.96 -1.11 857.48 7.7L330.73 205.46C315.79 211.07 302.41 220.17 291.71 232.01L26.39 525.43Z" stroke="#FEA700" stroke-opacity="1.000000" stroke-width="3.000000"/>
</svg>
